<svg width="256" height="256" viewBox="0 0 256 256" fill="none" xmlns="http://www.w3.org/2000/svg" role="img" aria-label="FirestoreX logo">
  <defs>
    <linearGradient id="bg" x1="28" y1="18" x2="228" y2="238" gradientUnits="userSpaceOnUse">
      <stop offset="0" stop-color="#38BDF8"/>
      <stop offset="1" stop-color="#4F46E5"/>
    </linearGradient>
    <linearGradient id="cloud" x1="76" y1="90" x2="180" y2="170" gradientUnits="userSpaceOnUse">
      <stop offset="0" stop-color="#E0F2FE"/>
      <stop offset="1" stop-color="#BFDBFE"/>
    </linearGradient>
    <filter id="glow" x="0" y="0" width="256" height="256" filterUnits="userSpaceOnUse" color-interpolation-filters="sRGB">
      <feGaussianBlur stdDeviation="10" result="blur"/>
      <feMerge>
        <feMergeNode in="blur"/>
        <feMergeNode in="SourceGraphic"/>
      </feMerge>
    </filter>
  </defs>

  <rect x="20" y="20" width="216" height="216" rx="56" fill="#040815"/>
  <rect x="28" y="28" width="200" height="200" rx="48" fill="url(#bg)" opacity="0.2"/>

  <path d="M128 38L188 64V118C188 161 160 198 128 214C96 198 68 161 68 118V64L128 38Z" fill="url(#bg)" filter="url(#glow)"/>

  <path d="M97 148H163C175 148 184 139 184 127C184 115 175 106 163 106C162 106 160 106 159 106C154 95 143 88 130 88C114 88 101 98 98 113C97 113 96 113 95 113C84 113 75 122 75 133C75 144 84 152 95 152H97V148Z" fill="url(#cloud)"/>

  <rect x="111" y="124" width="34" height="34" rx="8" fill="#111827" stroke="#93C5FD" stroke-width="4"/>
  <path d="M118 124V116C118 110 123 105 128 105C134 105 138 110 138 116V124" stroke="#E0F2FE" stroke-width="4" stroke-linecap="round"/>
  <circle cx="128" cy="139" r="3.5" fill="#38BDF8"/>

  <path d="M83 178L104 162" stroke="#38BDF8" stroke-width="4" stroke-linecap="round"/>
  <path d="M173 178L152 162" stroke="#38BDF8" stroke-width="4" stroke-linecap="round"/>
</svg>
